<svg xmlns="http://www.w3.org/2000/svg" viewBox="0 0 208 191" width="24" height="24">
  <path fill="#000000" d="M104,0C46.56,0,0,36.71,0,82c0,29.28,19.47,55,48.75,69.48-1.59,5.49-10.24,35.34-10.58,37.69,0,0-.21,1.76.93,2.43a3.14,3.14,0,0,0,2.48.15c3.28-.46,38.21-25.57,44-29.75,6.06.79,12.34,1.26,18.65,1.26,57.41,0,104-36.71,104-82S161.4,0,104,0Z"/>
  <path fill="#FEE500" d="M104,0C46.56,0,0,36.71,0,82c0,29.28,19.47,55,48.75,69.48-1.59,5.49-10.24,35.34-10.58,37.69,0,0-.21,1.76.93,2.43a3.14,3.14,0,0,0,2.48.15c3.28-.46,38.21-25.57,44-29.75,6.06.79,12.34,1.26,18.65,1.26,57.41,0,104-36.71,104-82S161.4,0,104,0Z"/>
  <path fill="#000000" d="M70.9,99.39a6.83,6.83,0,0,1-8.19,1.17,29.57,29.57,0,0,1-5.11-3.45c-1.66-1.39-3.35-2.77-5-4.18a6.84,6.84,0,0,1-2.07-8.53,6.76,6.76,0,0,1,8.49-3.33c2.48,1.13,4.91,2.35,7.34,3.57,1.4.7,2.79,1.43,4.21,2.09a6.84,6.84,0,0,1,3.44,8.48A6.92,6.92,0,0,1,70.9,99.39Z"/>
  <path fill="#000000" d="M62.58,122.56a6.83,6.83,0,0,1-8.43-4.77c-.37-1.28-.65-2.56-.92-3.84-.42-2-.81-4-1.31-6a6.85,6.85,0,0,1,4.62-8.37,6.76,6.76,0,0,1,8.37,4.62c.66,2.43,1.24,4.88,1.82,7.32.33,1.41.64,2.82,1,4.22a6.84,6.84,0,0,1-4.77,8.43A6.92,6.92,0,0,1,62.58,122.56Z"/>
  <path fill="#000000" d="M156.15,99.39a6.83,6.83,0,0,0,8.19,1.17,29.57,29.57,0,0,0,5.11-3.45c1.66-1.39,3.35-2.77,5-4.18a6.84,6.84,0,0,0,2.07-8.53,6.76,6.76,0,0,0-8.49-3.33c-2.48,1.13-4.91,2.35-7.34,3.57-1.4.7-2.79,1.43-4.21,2.09a6.84,6.84,0,0,0-3.44,8.48A6.92,6.92,0,0,0,156.15,99.39Z"/>
  <path fill="#000000" d="M164.47,122.56a6.83,6.83,0,0,0,8.43-4.77c.37-1.28.65-2.56.92-3.84.42-2,.81-4,1.31-6a6.85,6.85,0,0,0-4.62-8.37,6.76,6.76,0,0,0-8.37,4.62c-.66,2.43-1.24,4.88-1.82,7.32-.33,1.41-.64,2.82-1,4.22a6.84,6.84,0,0,0,4.77,8.43A6.92,6.92,0,0,0,164.47,122.56Z"/>
  <path fill="#000000" d="M113.52,122.56a6.83,6.83,0,0,0,8.43-4.77c.37-1.28.65-2.56.92-3.84.42-2,.81-4,1.31-6a6.85,6.85,0,0,0-4.62-8.37,6.76,6.76,0,0,0-8.37,4.62c-.66,2.43-1.24,4.88-1.82,7.32-.33,1.41-.64,2.82-1,4.22a6.84,6.84,0,0,0,4.77,8.43A6.92,6.92,0,0,0,113.52,122.56Z"/>
  <path fill="#000000" d="M113.52,99.39a6.83,6.83,0,0,1-8.19,1.17,29.57,29.57,0,0,1-5.11-3.45c-1.66-1.39-3.35-2.77-5-4.18a6.84,6.84,0,0,1-2.07-8.53,6.76,6.76,0,0,1,8.49-3.33c2.48,1.13,4.91,2.35,7.34,3.57,1.4.7,2.79,1.43,4.21,2.09a6.84,6.84,0,0,1,3.44,8.48A6.92,6.92,0,0,1,113.52,99.39Z"/>
</svg> 